<?xml version="1.0" encoding="UTF-8"?>
<svg id="Layer_1" data-name="Layer 1" xmlns="http://www.w3.org/2000/svg" viewBox="0 0 1080 567.43">
  <defs>
    <style>
      .cls-1 {
        stroke-width: 0px;
      }
    </style>
  </defs>
  <path class="cls-1" d="m798.88,267c-30.06-11.52-61.48-15.14-92.64-20.67,3.43,0,6.87.01,10.3,0,3.66-.02,7.33-.1,10.99-.09,17.3.02,34.61-.13,51.91.22,4.68.09,6.28-1.52,7.08-5.85,1.91-10.4,5.29-20.27,12.41-28.45,5-5.74,11.31-8.64,18.89-8.65,29.66-.03,59.33-.08,88.99,0,13.82.04,21.15,8.88,26.54,20.15.36.75.66,1.53.89,2.33,4.03,14.43,8.69,28.42,16.07,41.77,7.72,13.96,7.22,30.16,7.19,45.9-.11,59.66.04,119.31-.22,178.97-.06,13.25-3.03,26.11-9.24,37.99-6.09,11.66-15.52,17.62-28.99,17.52-29.28-.22-58.56-.26-87.83.02-14.37.14-24.28-6.4-30.06-18.98-2.02-4.41-4.47-5.12-8.66-5.12-125.65.09-251.31.08-376.96.09-38.83,0-77.66.06-116.49-.1-3.65-.01-5.57.91-7.15,4.32-6.1,13.12-15.96,20-31.1,19.77-29.1-.45-58.22-.28-87.33-.02-13.99.13-23.46-6.35-29.37-18.49-2.09-4.3-4.65-7.36-8.93-9.96-8.64-5.24-12.18-14.34-12.38-23.89-.51-24.98-.2-49.99-.19-74.98,0-.3.23-.6.58-1.41,2.03-.1,4.33-.52,6.55-.25,4.53.54,5.57-1.36,5.55-5.66-.15-36.83-.2-73.67-.03-110.5.07-16.02,2.91-31.53,11.75-45.29,5.72-8.89,13.95-13.35,24.75-13.31,30.33.13,60.66.24,90.98-.04,13.75-.13,22.75,6.59,28.4,18.24,3.16,6.52,5.12,13.61,7.5,20.12,27.54,0,55.16,0,82.78,0,7.17,0,14.34-.11,21.5.03,8.23.17,12.13,4.26,12.16,12.49.03,9.5.05,19,0,28.5-.05,8.92-3.87,12.72-12.83,12.71-32.94,0-65.89-.04-98.83-.06-.81,0-1.62.07-2.79.13v32.7c15.94.88,28.56,8.56,40.43,18.56,27.94,23.55,80.76,30.3,116.88-1.99,8.82-7.88,10.26-17.77,11.72-28.13,3.32-23.56,6.52-47.14,9.83-70.7,1.09-7.74-.45-11.27-8-13.73-6.93-2.25-14.16-3.64-21.33-5.02-7.5-1.44-11.14-5.65-11.66-13.23-.64-9.42,5.43-19.39,15.21-21.87,9.47-2.39,18.55-6.32,27.8-9.56.13-.05.31.05,1.55.27-8.14,4.77-15.56,9.14-23,13.48-2.3,1.34-4.7,2.51-6.98,3.89-4.19,2.54-6.66,9-4.9,13.53.47,1.2,2.16,2.42,3.48,2.69,5.86,1.2,11.8,2.03,17.7,3.06,7.48,1.31,13.63,4.93,18.85,10.46,1.28,1.36,3.63,2.24,5.55,2.37,21.93,1.51,43.87,2.84,65.8,4.22.31.02.61.2,1.36.46-20.53,1.35-40.62,2.67-60.71,4.01q-8.09.54-9.67,9.67c14,.68,27.91,1.32,41.82,2.05,13.94.73,27.88,1.56,41.83,3.06-28.48,1.49-56.97,2.99-85.78,4.5-.89,4.24-1.73,8.23-2.68,12.75,34.23,1.54,67.9,3.06,101.56,4.58,0,.11,0,.22,0,.32-33.89,1.52-67.77,3.05-101.89,4.58v33.58c31.77,2.48,63.27,4.95,94.76,7.41,0,.23-.02.46-.02.69h-94.75v130.51h112.21c0-2.68,0-5.27,0-7.86,0-41.5-.44-83,.19-124.48.27-17.76,2.73-35.5,4.26-53.24.85-9.79,1.89-19.56,2.72-29.34.28-3.34,1.25-5.12,5.11-5.87,13.21-2.55,26.3-5.7,39.31-8.59,1.56-6.99.25-10.56-5.75-13.32-5.11-2.35-10.56-3.95-15.87-5.88-4.78-1.73-9.37-3.79-11.27-9.02-.58-1.58-.46-3.42-.78-6.09,26.1,2.51,51.41,4.94,76.72,7.37.06.82.12,1.64.17,2.46-10.34,2.07-20.68,4.14-30.22,6.05,2.79,4.79,7.2,9.37,8.01,14.5.98,6.26-.9,13.02-1.96,19.5-.18,1.09-2.35,2.11-3.79,2.69-12.97,5.16-25.96,10.3-39.01,15.24-2.76,1.04-3.84,2.52-4.07,5.41-1.64,20.25-3.28,40.49-5.28,60.7-.41,4.13.67,6.91,4.05,8.68,12.35,6.46,24.45,13.54,37.27,18.91,16.71,7,34.02,12.46,52.28,14.21,11.81,1.13,22.55-2.68,32.53-7.9,16.04-8.39,31.55-17.81,47.16-27.02,1.5-.88,2.87-3.32,2.93-5.08.29-9.16.04-18.33.19-27.49.05-3.18-1.24-3.86-4.17-3.85-26.13.08-52.26-.06-78.39.03-10.71.03-14.34-3.39-14.34-14.24,0-9.17-.06-18.33.02-27.5.06-6.82,3.2-10.45,9.93-11.6,1.95-.33,3.97-.37,5.96-.37,27,0,54,.05,81,.07.48,0,.96-.16,1.72-.3,1.45-4.83,2.92-9.72,4.66-15.5Zm133.64-5.44c-6.59-3.72-13.56-2.13-20.27-2.64-3-.23-4.06,1.21-4.74,3.8-10.98,41.95-16.33,84.58-15.76,127.94.08,5.84.51,11.68.78,17.52-4.05-24.77-5.3-49.73-3.81-74.65,1.48-24.8,4.51-49.5,6.86-74.27h-15.99c-10.64,57.33-16.67,114.73-12.53,172.91-8.72-57.6-5.88-115.12,1.2-173.2-5.13,0-9.77.15-14.39-.05-3.15-.14-4.27.99-4.69,4.18-3.64,27.7-8.38,55.29-10.98,83.08-2.14,22.82-2.08,45.87-2.44,68.83-.16,10.21,1.04,20.44,1.62,30.66-5.53-30.76-7.06-61.81-5.82-92.9,1.24-31.16,3.68-62.27,5.6-93.47-18.91-2.86-29.64,5.34-36.42,22.61-4.22,10.76-5.16,22.08-5.2,33.37-.21,55.66-.1,111.32-.06,166.99,0,2.77.45,5.54.68,8.27,17.07,0,33.65.62,50.17-.17,18.07-.87,33.77-16.1,36.61-34.07,1.14-7.23,2.24-14.48,3.12-21.75.38-3.1,1.58-4.25,4.79-4.08,5.23.27,10.48.07,14.57.07,0-14.07-.2-27.22.04-40.36.78-44.4,5.04-88.1,27.05-128.63Zm-751.35-1.89c-16.98-3.48-29.04,2.77-36.14,18.7-4.67,10.48-6.73,21.55-6.74,33-.01,34.15,0,68.3,0,102.45,0,1.59.17,3.18.29,5.43h33.68c.34,2.3.68,3.93.81,5.58,1,13.07,4.19,25.56,10.09,37.28,8.58,17.07,22.03,27.44,41.47,28.4,11.81.59,23.68.11,35.56.11-1.95-8.51-4.02-16.38-5.53-24.35-6.65-35.06-8.05-70.43-5.16-105.93,2.79-34.31,7.93-68.12,25.98-98.71-6.25-3.64-13.04-2.25-19.57-2.73-3.51-.26-4.84,1.06-5.74,4.41-11.25,42.24-16.26,85.23-15.69,128.89.08,5.8.67,11.59,1.02,17.38-7.35-50.25-5.17-100.29,4.26-150.37h-17.73c-2.89,18.85-6.3,37.5-8.48,56.29-2.18,18.83-3.72,37.79-4.47,56.73-.75,18.72-.16,37.49-.16,56.59-3.9-28.45-5.3-56.71-4.23-85,1.07-28.17,3.32-56.29,5.08-84.86-4.4,0-9.04.11-13.68-.04-2.78-.09-3.59,1.06-3.96,3.74-3.68,27.02-8.07,53.96-11.16,81.04-3.16,27.65-3.65,55.48-1.98,83.29.41,6.84.98,13.68,1.48,20.52-10.25-62.67-7.01-125.3.68-187.85Zm-55.43,162.52c-.14,1.7-.26,2.52-.26,3.34-.01,21.82-.11,43.65.07,65.47.03,4.11.79,8.32,1.92,12.29,3.15,11.05,10.94,17.17,22.08,17.68,3.15.15,6.31-.25,9.47-.25,101.46-.02,202.91-.01,304.37-.01h7.02v-17.82c-8.95,0-17.67.3-26.35-.14-3.97-.2-8.35-1.05-11.69-3.05-6.47-3.87-12.92-5.72-20.6-5.68-60.47.27-120.94.19-181.42.12-24.57-.03-42.21-11.44-51.47-34.03-4.86-11.85-7.41-24.64-11.17-37.61h-8.03c0,.95-.06,1.59,0,2.22,1.59,13.38,3.33,26.74,4.77,40.14,1.14,10.69,3.48,20.8,12.32,27.95,3.2,2.58,6.81,4.81,10.53,6.53,3.53,1.63,7.47,2.4,11.75,3.71-21.53-.3-36.57-12.2-41.73-32.5-3.77-14.82-7.54-29.63-11.51-44.4-.4-1.5-2.11-3.67-3.34-3.77-5.43-.41-10.9-.18-16.74-.18Zm666.65,68.44c0-16.22.06-32-.16-47.78-.01-.9-2.35-2.43-3.69-2.53-10.12-.76-20.26-1.3-30.4-1.76-5.47-.25-11.17-1.22-16.41-.14-27.21,5.61-52.5,15.81-74.19,33.62-6.48,5.32-12.39,11.33-18.56,17.02.4.52.8,1.05,1.21,1.57h142.2Zm-162.17-62.04c53.5,2.84,106.42,5.66,159.67,8.49v-20.67c-8.77-.47-17.07-1.06-25.37-1.21-1.44-.03-3.41,1.49-4.26,2.84-1.82,2.89-3.06,6.13-4.54,9.23-.98-2.18-1.1-3.99-1.21-5.8-.41-7.05-.41-7.01-7.29-7.32-2.99-.13-5.99-.34-8.95-.74-2.73-.37-4.34.52-5.36,3.16-1.28,3.31-2.93,6.49-4.93,10.81-.63-5.66-1.11-10.01-1.63-14.62-5.4-.26-10.38-.36-15.34-.78-2.83-.24-4.18.85-5.14,3.45-1.26,3.4-3,6.62-5.09,11.11-.49-2.68-.77-3.81-.91-4.95-1.15-9.88-1.13-9.97-11.01-10.69-9.5-.69-7.62-2.41-11.77,7.18-.95,2.19-2.12,4.29-3.44,6.94-.4-1.25-.67-1.85-.79-2.49-.83-4.24-.25-10.26-2.81-12.25-2.9-2.25-8.63-.71-13.09-1.17-2.88-.3-4.14.8-5.11,3.37-1.51,4-3.46,7.83-5.23,11.73-.28-.15-.56-.3-.84-.46-.51-5.06-1.03-10.12-1.55-15.34h-12.78c-.42,6.84-.81,13.26-1.24,20.18Zm-216.3-.7c-.28.11-.57.23-.85.34-2.05-4.47-2.98-10.84-6.46-12.9-3.76-2.22-9.9-.41-15-.35-.17,0-.4-.06-.49.03-1.22,1.17-3.16,2.19-3.49,3.58-.76,3.19-.74,6.57-1.04,9.87-1.64-1.63-2.42-3.26-3.16-4.91q-3.52-7.96-12.12-7.5c-2.49.13-5.1-.22-7.45.39-1.4.37-3.12,2.01-3.47,3.39-.82,3.21-.91,6.62-1.42,11.04-2.01-4.38-3.32-7.8-5.13-10.93-.74-1.27-2.58-2.67-3.92-2.67-5.44,0-10.88.51-16.6.84-.47,4.44-.89,8.46-1.45,13.8-1.91-4.29-3.19-7.49-4.77-10.52-.61-1.18-1.94-2.88-2.89-2.85-7.9.24-15.79.82-23.51,1.29v20.65c52.11-2.78,103.76-5.53,156.04-8.32-.42-7.16-.8-13.85-1.22-20.95-4.54.34-8.47.64-12.65.96-.63,5.13-1.24,10.04-1.97,15.92-.92-1.73-1.35-2.44-1.69-3.19-1.8-3.92-2.6-9.49-5.65-11.33-3.21-1.93-8.57-.3-12.99-.23-.33,0-.67.03-1,0-2.95-.2-4.69.74-4.75,4.12-.06,3.48-.58,6.95-.89,10.42Zm1.66,63.04c.21-.54.43-1.07.64-1.61-9.37-5.43-18.25-12.16-28.24-15.97-12-4.58-24.82-7.4-37.52-9.66-16.42-2.92-33.07-4.53-49.83-6.74v33.98h114.95Zm-130.93-172.65c-10.02,14.26-9.51,142.76.62,151.32,7.38-51.05,7.4-101.17-.62-151.32Zm654.94,150.6c.69.06,1.38.12,2.06.19.64-2.5,1.65-4.97,1.85-7.51,1.5-19.07,3.47-38.13,4.06-57.24.82-26.47.31-52.96-4.03-79.21-.4-2.4-1.3-4.71-1.97-7.07-.68.1-1.36.2-2.05.3-7.25,50.19-7.26,100.37.07,150.54Zm-786.71,55.24c-.23.47-.45.94-.68,1.42,2.48,1.77,4.74,4.07,7.49,5.18,3.47,1.4,7.33,2.53,11.03,2.55,31.12.19,62.25.14,93.37.07,5.11-.01,10.06-.86,14.02-4.14-1.52-4.21-4.08-5.17-7.92-5.15-27.97.16-55.94.08-83.92.07-11.13,0-22.27,0-33.4,0Zm783.54,5.91c-2.32-3.2-3.58-4.94-4.34-5.99h-123.22c5.39,6.5,11.47,9.28,18.46,9.32,31.64.15,63.28.15,94.92-.12,4.42-.04,8.83-1.94,14.18-3.2Z"/>
  <path class="cls-1" d="m410.84,32.65h318.4c.01.08.03.17.04.25-14.22,1.77-28.44,3.51-42.65,5.31-27.89,3.53-55.78,7.13-83.68,10.64-25.26,3.17-50.53,6.22-75.79,9.4-29.55,3.71-59.09,7.45-88.62,11.29-8.13,1.06-8.25,1.47-6.51,10.8h87.92v23.57h-93.37c-5.17,23.03-10.28,45.8-15.39,68.56-.12-.02-.24-.03-.36-.05V32.65Z"/>
  <path class="cls-1" d="m345.09,239.29c18.44,0,36.61.69,54.69-.28,9.81-.53,17.21-7.62,23.65-14.73,2.83-3.13,5.65-4.48,9.85-4.3,7.78.32,15.59.09,23.53.61-7.02,1.61-14.1,3.01-21.03,4.95-2.12.59-4.45,2.29-5.6,4.15-7.65,12.42-19.01,18.13-33.13,17.54-22.62-.95-45.19-3.23-67.82-3.99-34.58-1.16-69.18-1.58-103.77-2.16-12.81-.22-25.62-.02-38.43-.02-1.95,0-3.91,0-6.68,0,.45-4.08.32-7.62,1.29-10.83,2.74-9.01,5.11-18.28,9.16-26.72,5.28-11.01,15.07-15.89,27.34-15.83,27.53.14,55.06.07,82.58.31,6.08.05,12.44.07,18.17,1.79,11.04,3.31,16.48,12.64,20.02,22.74,2.51,7.17,3.65,14.82,5.37,22.26.33,1.43.52,2.89.81,4.5Z"/>
  <path class="cls-1" d="m604.83,111.97c-1.41-10.8-2.77-21.14-4.2-32.12h117.33c1.81-7.82,1.47-8.19-5.71-8.58-39.18-2.13-78.36-4.31-117.63-7.25,47.06-5.94,94.11-11.89,141.56-17.88v135.37c-.12.02-.25.05-.37.07-5.39-21.35-10.92-42.67-16.07-64.08-1.06-4.39-2.79-5.68-7.3-5.65-33.82.21-67.64.12-101.47.12-1.97,0-3.93,0-6.14,0Z"/>
  <path class="cls-1" d="m558.8,238.32c-15.1-.99-30.22-1.75-45.3-3.06-7.96-.69-9.3-1.97-9.05-10.08.42-14.1-.7-28.87,3.17-42.09,6.03-20.6,8.29-41.64,12.03-62.51,2.42-13.52,5.81-26.64,13.61-38.23,14.31-21.25,39.33-20.99,53.3.52,9.03,13.91,12.47,29.54,14.68,45.65,1.77,12.85,3.7,25.69,6.11,38.43,1.03,5.47,4.5,10.57,5.03,16.01,1.45,15.02,2.04,30.13,2.73,45.22.22,4.81-3.19,6.67-7.45,6.93-14.1.89-28.21,1.68-42.32,2.46-2.16.12-4.33.02-6.5.02-.02.24-.03.48-.05.72Zm-2.91-3.24c15.08-.83,31.86-1.62,48.62-2.72,6.98-.46,8.06-1.63,7.85-8.56-.34-11.14-.76-22.3-1.87-33.37-.53-5.36-2.65-10.57-4.13-15.82-.76-2.7-2.07-5.28-2.51-8.02-2.53-15.76-4.64-31.59-7.37-47.32-2.37-13.7-6.54-26.86-15.25-38.02-11.24-14.39-28.32-15.22-40.94-2.12-8.98,9.33-13.1,21.15-15.8,33.37-5.37,24.41-6.69,49.5-14.48,73.63-3.75,11.63-2.18,25.05-2.58,37.68-.23,7.18.63,8,7.86,8.58,12.93,1.05,25.89,1.73,40.59,2.68Z"/>
  <path class="cls-1" d="m645.53,192.07h6.89c30.61,0,61.21.08,91.82-.09,4.44-.02,6.32.97,5.93,5.78-.43,5.27-.1,10.6-.1,16.37h-61.47c-.02-.14-.05-.27-.07-.41,12.54-1.9,25.08-3.79,37.61-5.69,0-.3,0-.6-.01-.9-22.86-1.22-45.71-2.44-68.57-3.66,0-.21.01-.42.02-.63,21.77-1.63,43.54-3.26,65.3-4.89.02-.39.03-.78.05-1.17-25.8-1.32-51.6-2.64-77.41-3.96,0-.25,0-.5,0-.76Z"/>
  <path class="cls-1" d="m474.1,192.84c-26.05,1.31-52.1,2.62-78.15,3.93-.02.38-.03.76-.05,1.14,21.85,1.63,43.7,3.26,65.55,4.89.02.23.03.46.05.69-22.57,1.22-45.13,2.44-67.7,3.67,0,.3,0,.59,0,.89,13.24,2.03,26.49,4.06,39.73,6.09-.02.11-.05.22-.07.34h-63.63v-21.84h104.37c-.04.07-.07.14-.11.21Z"/>
  <path class="cls-1" d="m560,231.11c-14.99-.94-29.76-1.92-44.54-2.74-2.94-.16-4.22-1.22-4.04-4.23.74-12.28.96-24.62,2.28-36.84.55-5.12,3.4-9.98,5.14-14.98,1.29-3.7,2.93-7.35,3.61-11.17,2.92-16.55,5.22-33.21,8.41-49.71,1.84-9.51,5.69-18.41,11.76-26.19,10.09-12.94,24.41-13.04,34.42,0,8.9,11.61,12.03,25.4,14.27,39.47,2.15,13.47,4.32,26.93,6.57,40.39.3,1.76.81,3.64,1.76,5.12,5.17,8.11,7.3,17.04,7.63,26.53.3,8.98.67,17.96,1.12,26.94.16,3.11-.92,4.5-4.18,4.68-14.78.81-29.55,1.8-44.19,2.72Zm-.39-3.21c13.89-.79,27.66-1.66,41.44-2.31,3.49-.17,4.55-1.41,4.27-4.92-.75-9.45-1.1-18.92-1.68-28.38-1.33-21.63-20.37-40.21-42.21-41.23-21.28-.99-42.11,16.05-44.89,37.5-1.41,10.86-1.41,21.9-2.18,32.85-.22,3.09,1.04,4.04,3.96,4.19,13.78.68,27.56,1.52,41.28,2.31Z"/>
  <path class="cls-1" d="m596.72,195.76c1.52,7.51,2.95,14.6,4.44,21.99-27.59,5.76-54.9,5.66-82.65.08,1.48-7.32,2.92-14.4,4.46-22,24.64,4.77,49.04,4.89,73.75-.07Z"/>
</svg>