<?xml version="1.0" encoding="UTF-8"?>
<svg id="Layer_1" data-name="Layer 1" xmlns="http://www.w3.org/2000/svg" viewBox="0 0 1080 567.43">
  <defs>
    <style>
      .cls-1 {
        stroke-width: 0px;
      }
    </style>
  </defs>
  <path class="cls-1" d="m365,547.81c.03-50.56-4.55-100.17-31.7-147.72,24.37-12,48.3-24.18,72.59-35.59,13.73-6.44,28.18-11.33,42.06-17.47,6.52-2.88,10.72-1.34,16.02,3.11,14.48,12.15,29.74,23.37,44.53,35.16,1.79,1.42,3.67,4.1,3.67,6.2-.1,52.1-.44,104.21-.74,156.31h-146.44Zm69.44-73.32c9.88,0,19.76.14,29.63-.03,13.99-.25,20.73-6.97,21.32-21.08.19-4.55.19-9.12,0-13.67-.57-13.53-7.05-20.38-20.53-20.61-20.13-.34-40.27-.34-60.4,0-13.91.23-20.42,7.34-20.78,21.54-.11,4.18-.12,8.36,0,12.54.41,13.97,7.29,21,21.13,21.29,9.87.2,19.75.04,29.63.04Zm-.77,36.59c13.28,0,26.56-.11,39.84.05,6.73.08,12.23-2.69,11.06-9.43-.61-3.52-6.71-8.57-10.45-8.68-26.16-.76-52.37-.81-78.53.02-4.01.13-7.85,5.92-11.76,9.09,4.09,2.99,7.97,8.14,12.3,8.55,12.41,1.17,25.01.41,37.53.41Z"/>
  <path class="cls-1" d="m568.65,547.81c-.14-51.43-.34-102.86-.25-154.29,0-2.8,1.73-6.5,3.89-8.25,15.01-12.16,30.25-24.05,45.69-35.66,2.85-2.15,7.9-4.68,10.36-3.56,38.67,17.64,77.08,35.85,115.53,53.98.97.46,1.66,1.52,2.36,2.19-26.43,45.2-30.18,95.1-31.14,145.59h-146.44Zm82.74-137.83c-30.65-.43-55.5,23.68-55.99,54.32-.49,30.47,24.03,55.66,54.4,55.92,30.64.26,55.64-24,56.01-54.36.38-30.59-23.84-55.45-54.42-55.89Z"/>
  <path class="cls-1" d="m554.92,33c12.63,3.8,25.74,6.49,37.8,11.63,27.6,11.74,47.7,31.88,62.05,58.23,4.44,8.16,3.12,14.21-2.32,20.63-8.95,10.56-20.59,14.28-33.81,12.36-8.58-1.25-17.23-3.25-25.32-6.32-35.37-13.42-70.37-13.34-105.9-.14-10.81,4.02-22.82,5.37-34.42,6.42-5.21.47-11.35-1.83-16.03-4.62-14.45-8.59-16.76-18.41-8.42-32.8,20.31-35.04,50.51-56.06,90.34-63.33,2.15-.39,4.19-1.36,6.29-2.06,9.92,0,19.83,0,29.75,0Zm-23.19,30.02c-1.77-9.86-6.6-11.82-13.67-11.56-27.68,1.02-59.54,23.81-68.01,50.04-1.19,3.67,2.39,8.88,3.76,13.38,4.29-2.04,10.87-2.95,12.5-6.29,11.39-23.24,29.47-35.91,55.07-38.94,3.92-.47,7.41-4.66,10.34-6.63Z"/>
  <path class="cls-1" d="m733.39,547.81c1.38-38.79,3.66-77.46,18.2-114.13,2.62-6.61,6.18-12.85,9.95-20.58,14.13,15.25,19.64,32.83,21.61,50.71,3.07,27.85,3.56,55.99,5.15,84h-54.91Z"/>
  <path class="cls-1" d="m291.78,547.81c-.41-33.6.24-67.19,9.47-99.76,3.34-11.77,9.4-22.77,16.08-33.78,25.42,41.77,28.49,87.41,29.36,133.54h-54.91Z"/>
  <path class="cls-1" d="m532.04,547.81v-155.47h17.37c0,4.63,0,8.74,0,12.84,0,43.39-.02,86.79.04,130.18,0,4.15.58,8.29.9,12.44h-18.3Z"/>
  <path class="cls-1" d="m662.44,240.69c1.13,27.85-6.98,50.39-27.55,68.26-16.97,14.74-33.23,30.29-49.88,45.4-27.29,24.78-60.72,25.15-88.49.64-18.57-16.39-36.88-33.08-54.99-49.97-18.55-17.3-24.39-39.4-23.58-62.97,17.83,3.81,35.16,7.81,52.61,11.13,13.32,2.54,25.95-.2,36.73-8.56,21.94-17.01,43.6-17.42,65.59-.23,15.68,12.25,33.58,10.93,51.37,7.08,12.56-2.72,24.79-6.94,38.19-10.78Zm-122.53,59.34c8.37,0,16.94,1.06,25.05-.42,4.49-.82,8.2-5.91,12.26-9.07-3.99-3.23-7.82-8.97-12-9.24-16.68-1.07-33.51-1.07-50.19.02-4.02.26-7.67,6.24-11.49,9.59,3.75,3.04,7.17,7.99,11.32,8.7,8.14,1.39,16.68.41,25.05.42Zm.49,27.47c5.69,0,11.79,1.25,16.96-.4,4.12-1.32,7.11-6.17,10.6-9.45-3.38-2.97-6.55-8.17-10.19-8.52-11.66-1.11-23.56-1.12-35.22-.01-3.55.34-6.62,5.69-9.92,8.74,3.56,3.22,6.64,7.98,10.8,9.27,5.19,1.62,11.27.39,16.96.36Zm-4.04,27.74c5.45,0,8.72.99,10.63-.2,4.29-2.66,7.9-6.4,11.79-9.7-3.71-3.02-7.02-7.5-11.25-8.7-5.24-1.48-11.55-1.29-16.82.21-3.49.99-8.25,5.54-8.26,8.51,0,3.19,4.43,7.06,7.8,9.33,2.14,1.45,5.88.53,6.1.54Z"/>
  <path class="cls-1" d="m548.06,210.61c6.84-21.82,14.09-44.93,21.61-68.91,32.82,10.68,65.29,25.67,96.32-4.2,5.69,25.71,6.95,50.15,3.16,74.72-.39,2.56-3.65,5.79-6.28,6.72-15.38,5.41-30.77,11.05-46.56,14.98-13.27,3.3-25.9,1.08-37.72-7.69-8.6-6.38-19.24-10-30.53-15.62Z"/>
  <path class="cls-1" d="m458.29,233.06c8.39-26.96,14.92-53.21,25.25-77.88,3.01-7.19,16.85-9.84,25.72-14.57.78.84,1.55,1.68,2.33,2.52-.52,2.75-.78,5.57-1.59,8.23-7.1,23.24-15.03,46.26-21.16,69.76-3.2,12.25-9.34,16.08-20.93,13.5-2.56-.57-5.19-.85-9.61-1.55Z"/>
  <path class="cls-1" d="m550.61,139.49c-7.16,23.03-13.39,46.17-21.92,68.41-2.26,5.9-11.6,9.1-17.69,13.53-.78-.62-1.57-1.23-2.35-1.85,5.06-16.52,10.1-33.04,15.18-49.56,1.9-6.17,4.57-12.19,5.68-18.5,2.07-11.73,7.81-16.63,21.1-12.04Z"/>
  <path class="cls-1" d="m445.83,155.05h16.87c-3.78,12.49-7.27,24.27-10.9,36-3.69,11.92-7.51,23.79-11.56,36.6-5.08-1.77-9.56-3.32-15.28-5.31,7.01-22.6,13.9-44.81,20.87-67.3Z"/>
  <path class="cls-1" d="m409.16,198.63c1.22-19.89,2.43-39.79,3.7-60.48,13.47,5.28,16.23,12.38,11.68,23.7-4.86,12.09-8.19,24.78-12.19,37.21-1.06-.14-2.13-.28-3.19-.42Z"/>
  <path class="cls-1" d="m403.43,438.15h61.99v17.32h-61.99v-17.32Z"/>
  <path class="cls-1" d="m614.16,465.56c-.21-20.17,15.41-36.49,35.34-36.92,20.73-.45,37.39,15.4,37.77,35.94.37,20.08-16.56,37.17-36.78,37.12-20-.05-36.12-16.08-36.33-36.14Zm36.46,8.74c0,.05,0,.1,0,.15,2.64,0,5.92.99,7.8-.21,3.93-2.51,7.13-6.17,10.63-9.36-3.67-2.92-6.95-7.26-11.11-8.41-5.26-1.45-11.5-1.31-16.8.1-3.36.9-8.02,5.37-8.01,8.23,0,3.17,4.14,7.23,7.47,9.19,2.52,1.49,6.62.29,10.02.29Z"/>
</svg>